<?xml version="1.0" encoding="UTF-8" standalone="no"?>
<svg
   xmlns:lucid="lucid"
   xmlns:dc="http://purl.org/dc/elements/1.1/"
   xmlns:cc="http://creativecommons.org/ns#"
   xmlns:rdf="http://www.w3.org/1999/02/22-rdf-syntax-ns#"
   xmlns:svg="http://www.w3.org/2000/svg"
   xmlns="http://www.w3.org/2000/svg"
   xmlns:xlink="http://www.w3.org/1999/xlink"
   xmlns:sodipodi="http://sodipodi.sourceforge.net/DTD/sodipodi-0.dtd"
   xmlns:inkscape="http://www.inkscape.org/namespaces/inkscape"
   width="303"
   height="303"
   version="1.1"
   id="svg1073"
   sodipodi:docname="arrayIcon.svg"
   inkscape:version="1.0.2 (e86c870879, 2021-01-15)">
  <metadata
     id="metadata1079">
    <rdf:RDF>
      <cc:Work
         rdf:about="">
        <dc:format>image/svg+xml</dc:format>
        <dc:type
           rdf:resource="http://purl.org/dc/dcmitype/StillImage" />
        <dc:title></dc:title>
      </cc:Work>
    </rdf:RDF>
  </metadata>
  <defs
     id="defs1077">
    <clipPath
       clipPathUnits="userSpaceOnUse"
       id="clipPath1083">
      <rect
         style="fill:#0000ff;fill-rule:evenodd"
         id="rect1085"
         width="310.98666"
         height="310.24829"
         x="293.67548"
         y="193.23195" />
    </clipPath>
  </defs>
  <sodipodi:namedview
     pagecolor="#ffffff"
     bordercolor="#666666"
     borderopacity="1"
     objecttolerance="10"
     gridtolerance="10"
     guidetolerance="10"
     inkscape:pageopacity="0"
     inkscape:pageshadow="2"
     inkscape:window-width="1366"
     inkscape:window-height="768"
     id="namedview1075"
     showgrid="false"
     inkscape:zoom="1.0455927"
     inkscape:cx="153"
     inkscape:cy="151"
     inkscape:window-x="0"
     inkscape:window-y="0"
     inkscape:window-maximized="1"
     inkscape:current-layer="svg1073" />
  <g
     transform="translate(-298.5,-198.5)"
     lucid:page-tab-id="i63plWyFd4uJ"
     id="g1071"
     clip-path="url(#clipPath1083)">
    <path
       d="m 300,206 c 0,-3.3 2.7,-6 6,-6 h 88 c 3.3,0 6,2.7 6,6 v 88 c 0,3.3 -2.7,6 -6,6 h -88 c -3.3,0 -6,-2.7 -6,-6 z"
       stroke="#333333"
       stroke-width="3"
       fill="#ffffff"
       id="path966" />
    <use
       xlink:href="#a"
       transform="translate(334.5679,253.52778)"
       id="use968"
       x="0"
       y="0"
       width="100%"
       height="100%" />
    <path
       d="m 400,206 c 0,-3.3 2.7,-6 6,-6 h 88 c 3.3,0 6,2.7 6,6 v 88 c 0,3.3 -2.7,6 -6,6 h -88 c -3.3,0 -6,-2.7 -6,-6 z"
       stroke="#333333"
       stroke-width="3"
       fill="#ffffff"
       id="path970" />
    <use
       xlink:href="#b"
       transform="translate(434.5679,253.52778)"
       id="use972"
       x="0"
       y="0"
       width="100%"
       height="100%" />
    <path
       d="m 300,306 c 0,-3.3 2.7,-6 6,-6 h 88 c 3.3,0 6,2.7 6,6 v 88 c 0,3.3 -2.7,6 -6,6 h -88 c -3.3,0 -6,-2.7 -6,-6 z"
       stroke="#333333"
       stroke-width="3"
       fill="#ffffff"
       id="path974" />
    <use
       xlink:href="#c"
       transform="translate(334.5679,353.52778)"
       id="use976"
       x="0"
       y="0"
       width="100%"
       height="100%" />
    <path
       d="m 400,306 c 0,-3.3 2.7,-6 6,-6 h 88 c 3.3,0 6,2.7 6,6 v 88 c 0,3.3 -2.7,6 -6,6 h -88 c -3.3,0 -6,-2.7 -6,-6 z"
       stroke="#333333"
       stroke-width="3"
       fill="#ffffff"
       id="path978" />
    <use
       xlink:href="#d"
       transform="translate(434.5679,353.52778)"
       id="use980"
       x="0"
       y="0"
       width="100%"
       height="100%" />
    <path
       d="m 500,206 c 0,-3.3 2.7,-6 6,-6 h 88 c 3.3,0 6,2.7 6,6 v 88 c 0,3.3 -2.7,6 -6,6 h -88 c -3.3,0 -6,-2.7 -6,-6 z"
       stroke="#333333"
       stroke-width="3"
       fill="#ffffff"
       id="path982" />
    <use
       xlink:href="#e"
       transform="translate(534.5679,253.52778)"
       id="use984"
       x="0"
       y="0"
       width="100%"
       height="100%" />
    <path
       d="m 500,306 c 0,-3.3 2.7,-6 6,-6 h 88 c 3.3,0 6,2.7 6,6 v 88 c 0,3.3 -2.7,6 -6,6 h -88 c -3.3,0 -6,-2.7 -6,-6 z"
       stroke="#333333"
       stroke-width="3"
       fill="#ffffff"
       id="path986" />
    <use
       xlink:href="#f"
       transform="translate(534.5679,353.52778)"
       id="use988"
       x="0"
       y="0"
       width="100%"
       height="100%" />
    <path
       d="m 300,406 c 0,-3.3 2.7,-6 6,-6 h 88 c 3.3,0 6,2.7 6,6 v 88 c 0,3.3 -2.7,6 -6,6 h -88 c -3.3,0 -6,-2.7 -6,-6 z"
       stroke="#333333"
       stroke-width="3"
       fill="#ffffff"
       id="path990" />
    <use
       xlink:href="#g"
       transform="translate(334.5679,453.52778)"
       id="use992"
       x="0"
       y="0"
       width="100%"
       height="100%" />
    <path
       d="m 400,406 c 0,-3.3 2.7,-6 6,-6 h 88 c 3.3,0 6,2.7 6,6 v 88 c 0,3.3 -2.7,6 -6,6 h -88 c -3.3,0 -6,-2.7 -6,-6 z"
       stroke="#333333"
       stroke-width="3"
       fill="#ffffff"
       id="path994" />
    <use
       xlink:href="#h"
       transform="translate(434.5679,453.52778)"
       id="use996"
       x="0"
       y="0"
       width="100%"
       height="100%" />
    <path
       d="m 500,406 c 0,-3.3 2.7,-6 6,-6 h 88 c 3.3,0 6,2.7 6,6 v 88 c 0,3.3 -2.7,6 -6,6 h -88 c -3.3,0 -6,-2.7 -6,-6 z"
       stroke="#333333"
       stroke-width="3"
       fill="#ffffff"
       id="path998" />
    <use
       xlink:href="#i"
       transform="translate(534.5679,453.52778)"
       id="use1000"
       x="0"
       y="0"
       width="100%"
       height="100%" />
    <defs
       id="defs1069">
      <path
         fill="#333333"
         d="m 101,-251 c 68,0 85,55 85,127 0,72 -20,128 -86,128 -67,0 -86,-56 -86,-128 0,-73 17,-127 87,-127 z m -1,229 c 47,0 54,-49 54,-102 0,-53 -4,-102 -53,-102 -51,0 -55,48 -55,102 0,53 5,102 54,102"
         id="j" />
      <path
         fill="#333333"
         d="m 68,-38 c 1,34 0,65 -14,84 H 32 C 41,33 49,20 49,0 H 33 v -38 h 35"
         id="k" />
      <g
         id="a">
        <use
           transform="scale(0.0617284)"
           xlink:href="#j"
           id="use1004"
           x="0"
           y="0"
           width="100%"
           height="100%" />
        <use
           transform="matrix(0.0617284,0,0,0.0617284,12.345679,0)"
           xlink:href="#k"
           id="use1006"
           x="0"
           y="0"
           width="100%"
           height="100%" />
        <use
           transform="matrix(0.0617284,0,0,0.0617284,18.518519,0)"
           xlink:href="#j"
           id="use1008"
           x="0"
           y="0"
           width="100%"
           height="100%" />
      </g>
      <path
         fill="#333333"
         d="m 27,0 v -27 h 64 v -190 l -56,39 v -29 l 58,-41 h 29 v 221 h 61 V 0 H 27"
         id="l" />
      <g
         id="b">
        <use
           transform="scale(0.0617284)"
           xlink:href="#j"
           id="use1012"
           x="0"
           y="0"
           width="100%"
           height="100%" />
        <use
           transform="matrix(0.0617284,0,0,0.0617284,12.345679,0)"
           xlink:href="#k"
           id="use1014"
           x="0"
           y="0"
           width="100%"
           height="100%" />
        <use
           transform="matrix(0.0617284,0,0,0.0617284,18.518519,0)"
           xlink:href="#l"
           id="use1016"
           x="0"
           y="0"
           width="100%"
           height="100%" />
      </g>
      <g
         id="c">
        <use
           transform="scale(0.0617284)"
           xlink:href="#l"
           id="use1019"
           x="0"
           y="0"
           width="100%"
           height="100%" />
        <use
           transform="matrix(0.0617284,0,0,0.0617284,12.345679,0)"
           xlink:href="#k"
           id="use1021"
           x="0"
           y="0"
           width="100%"
           height="100%" />
        <use
           transform="matrix(0.0617284,0,0,0.0617284,18.518519,0)"
           xlink:href="#j"
           id="use1023"
           x="0"
           y="0"
           width="100%"
           height="100%" />
      </g>
      <g
         id="d">
        <use
           transform="scale(0.0617284)"
           xlink:href="#l"
           id="use1026"
           x="0"
           y="0"
           width="100%"
           height="100%" />
        <use
           transform="matrix(0.0617284,0,0,0.0617284,12.345679,0)"
           xlink:href="#k"
           id="use1028"
           x="0"
           y="0"
           width="100%"
           height="100%" />
        <use
           transform="matrix(0.0617284,0,0,0.0617284,18.518519,0)"
           xlink:href="#l"
           id="use1030"
           x="0"
           y="0"
           width="100%"
           height="100%" />
      </g>
      <path
         fill="#333333"
         d="m 101,-251 c 82,-7 93,87 43,132 L 82,-64 C 71,-53 59,-42 53,-27 H 182 V 0 H 18 c 2,-99 128,-94 128,-182 0,-28 -16,-43 -45,-43 -29,0 -46,15 -49,41 l -32,-3 c 6,-41 34,-60 81,-64"
         id="m" />
      <g
         id="e">
        <use
           transform="scale(0.0617284)"
           xlink:href="#j"
           id="use1034"
           x="0"
           y="0"
           width="100%"
           height="100%" />
        <use
           transform="matrix(0.0617284,0,0,0.0617284,12.345679,0)"
           xlink:href="#k"
           id="use1036"
           x="0"
           y="0"
           width="100%"
           height="100%" />
        <use
           transform="matrix(0.0617284,0,0,0.0617284,18.518519,0)"
           xlink:href="#m"
           id="use1038"
           x="0"
           y="0"
           width="100%"
           height="100%" />
      </g>
      <g
         id="f">
        <use
           transform="scale(0.0617284)"
           xlink:href="#l"
           id="use1041"
           x="0"
           y="0"
           width="100%"
           height="100%" />
        <use
           transform="matrix(0.0617284,0,0,0.0617284,12.345679,0)"
           xlink:href="#k"
           id="use1043"
           x="0"
           y="0"
           width="100%"
           height="100%" />
        <use
           transform="matrix(0.0617284,0,0,0.0617284,18.518519,0)"
           xlink:href="#m"
           id="use1045"
           x="0"
           y="0"
           width="100%"
           height="100%" />
      </g>
      <g
         id="g">
        <use
           transform="scale(0.0617284)"
           xlink:href="#m"
           id="use1048"
           x="0"
           y="0"
           width="100%"
           height="100%" />
        <use
           transform="matrix(0.0617284,0,0,0.0617284,12.345679,0)"
           xlink:href="#k"
           id="use1050"
           x="0"
           y="0"
           width="100%"
           height="100%" />
        <use
           transform="matrix(0.0617284,0,0,0.0617284,18.518519,0)"
           xlink:href="#j"
           id="use1052"
           x="0"
           y="0"
           width="100%"
           height="100%" />
      </g>
      <g
         id="h">
        <use
           transform="scale(0.0617284)"
           xlink:href="#m"
           id="use1055"
           x="0"
           y="0"
           width="100%"
           height="100%" />
        <use
           transform="matrix(0.0617284,0,0,0.0617284,12.345679,0)"
           xlink:href="#k"
           id="use1057"
           x="0"
           y="0"
           width="100%"
           height="100%" />
        <use
           transform="matrix(0.0617284,0,0,0.0617284,18.518519,0)"
           xlink:href="#l"
           id="use1059"
           x="0"
           y="0"
           width="100%"
           height="100%" />
      </g>
      <g
         id="i">
        <use
           transform="scale(0.0617284)"
           xlink:href="#m"
           id="use1062"
           x="0"
           y="0"
           width="100%"
           height="100%" />
        <use
           transform="matrix(0.0617284,0,0,0.0617284,12.345679,0)"
           xlink:href="#k"
           id="use1064"
           x="0"
           y="0"
           width="100%"
           height="100%" />
        <use
           transform="matrix(0.0617284,0,0,0.0617284,18.518519,0)"
           xlink:href="#m"
           id="use1066"
           x="0"
           y="0"
           width="100%"
           height="100%" />
      </g>
    </defs>
  </g>
</svg>
