<?xml version="1.0" encoding="UTF-8" standalone="no"?>
<svg
   xmlns:lucid="lucid"
   xmlns:dc="http://purl.org/dc/elements/1.1/"
   xmlns:cc="http://creativecommons.org/ns#"
   xmlns:rdf="http://www.w3.org/1999/02/22-rdf-syntax-ns#"
   xmlns:svg="http://www.w3.org/2000/svg"
   xmlns="http://www.w3.org/2000/svg"
   xmlns:xlink="http://www.w3.org/1999/xlink"
   xmlns:sodipodi="http://sodipodi.sourceforge.net/DTD/sodipodi-0.dtd"
   xmlns:inkscape="http://www.inkscape.org/namespaces/inkscape"
   width="403"
   height="403"
   version="1.1"
   id="svg2728"
   sodipodi:docname="hashTableIcon.svg"
   inkscape:version="1.0.2 (e86c870879, 2021-01-15)">
  <metadata
     id="metadata2734">
    <rdf:RDF>
      <cc:Work
         rdf:about="">
        <dc:format>image/svg+xml</dc:format>
        <dc:type
           rdf:resource="http://purl.org/dc/dcmitype/StillImage" />
        <dc:title></dc:title>
      </cc:Work>
    </rdf:RDF>
  </metadata>
  <defs
     id="defs2732" />
  <sodipodi:namedview
     pagecolor="#ffffff"
     bordercolor="#666666"
     borderopacity="1"
     objecttolerance="10"
     gridtolerance="10"
     guidetolerance="10"
     inkscape:pageopacity="0"
     inkscape:pageshadow="2"
     inkscape:window-width="1366"
     inkscape:window-height="768"
     id="namedview2730"
     showgrid="false"
     inkscape:zoom="1.3208431"
     inkscape:cx="201.5"
     inkscape:cy="199"
     inkscape:window-x="0"
     inkscape:window-y="0"
     inkscape:window-maximized="1"
     inkscape:current-layer="svg2728" />
  <g
     transform="translate(-598.5,-98.5)"
     lucid:page-tab-id="0_0"
     id="g2726">
    <path
       d="m 600,186 c 0,-3.3 2.7,-6 6,-6 h 148 c 3.3,0 6,2.7 6,6 v 28 c 0,3.3 -2.7,6 -6,6 H 606 c -3.3,0 -6,-2.7 -6,-6 z"
       stroke="#333333"
       stroke-width="3"
       fill="#ffffff"
       id="path2472" />
    <use
       xlink:href="#a"
       transform="translate(624.50617,204.65278)"
       id="use2474"
       x="0"
       y="0"
       width="100%"
       height="100%" />
    <use
       xlink:href="#b"
       transform="translate(678.82716,204.65278)"
       id="use2476"
       x="0"
       y="0"
       width="100%"
       height="100%" />
    <path
       d="m 600,276 c 0,-3.3 2.7,-6 6,-6 h 148 c 3.3,0 6,2.7 6,6 v 28 c 0,3.3 -2.7,6 -6,6 H 606 c -3.3,0 -6,-2.7 -6,-6 z"
       stroke="#333333"
       stroke-width="3"
       fill="#ffffff"
       id="path2478" />
    <use
       xlink:href="#c"
       transform="translate(628.24074,294.65278)"
       id="use2480"
       x="0"
       y="0"
       width="100%"
       height="100%" />
    <use
       xlink:href="#b"
       transform="translate(675.09259,294.65278)"
       id="use2482"
       x="0"
       y="0"
       width="100%"
       height="100%" />
    <path
       d="m 600,366 c 0,-3.3 2.7,-6 6,-6 h 148 c 3.3,0 6,2.7 6,6 v 28 c 0,3.3 -2.7,6 -6,6 H 606 c -3.3,0 -6,-2.7 -6,-6 z"
       stroke="#333333"
       stroke-width="3"
       fill="#ffffff"
       id="path2484" />
    <use
       xlink:href="#d"
       transform="translate(633.76543,384.65278)"
       id="use2486"
       x="0"
       y="0"
       width="100%"
       height="100%" />
    <use
       xlink:href="#e"
       transform="translate(685.55556,384.65278)"
       id="use2488"
       x="0"
       y="0"
       width="100%"
       height="100%" />
    <path
       d="m 831.48,106 c 0,-3.3 2.7,-6 6,-6 h 48 c 3.32,0 6,2.7 6,6 v 28 c 0,3.3 -2.68,6 -6,6 h -48 c -3.3,0 -6,-2.7 -6,-6 z"
       stroke="#333333"
       stroke-width="3"
       fill="#ffffff"
       id="path2490" />
    <use
       xlink:href="#f"
       transform="translate(842.964,124.65278)"
       id="use2492"
       x="0"
       y="0"
       width="100%"
       height="100%" />
    <path
       d="m 831.48,146 c 0,-3.3 2.7,-6 6,-6 h 48 c 3.32,0 6,2.7 6,6 v 28 c 0,3.3 -2.68,6 -6,6 h -48 c -3.3,0 -6,-2.7 -6,-6 z"
       stroke="#333333"
       stroke-width="3"
       fill="#ffffff"
       id="path2494" />
    <use
       xlink:href="#g"
       transform="translate(842.964,164.65278)"
       id="use2496"
       x="0"
       y="0"
       width="100%"
       height="100%" />
    <path
       d="m 831.48,186 c 0,-3.3 2.7,-6 6,-6 h 48 c 3.32,0 6,2.7 6,6 v 28 c 0,3.3 -2.68,6 -6,6 h -48 c -3.3,0 -6,-2.7 -6,-6 z"
       stroke="#333333"
       stroke-width="3"
       fill="#ffffff"
       id="path2498" />
    <use
       xlink:href="#h"
       transform="translate(842.964,204.65278)"
       id="use2500"
       x="0"
       y="0"
       width="100%"
       height="100%" />
    <path
       d="m 828.48,386 c 0,-3.3 2.7,-6 6,-6 h 48 c 3.32,0 6,2.7 6,6 v 28 c 0,3.3 -2.68,6 -6,6 h -48 c -3.3,0 -6,-2.7 -6,-6 z"
       stroke="#333333"
       stroke-width="3"
       fill="#ffffff"
       id="path2502" />
    <use
       xlink:href="#i"
       transform="translate(839.964,404.65278)"
       id="use2504"
       x="0"
       y="0"
       width="100%"
       height="100%" />
    <path
       d="m 828.48,426 c 0,-3.3 2.7,-6 6,-6 h 48 c 3.32,0 6,2.7 6,6 v 28 c 0,3.3 -2.68,6 -6,6 h -48 c -3.3,0 -6,-2.7 -6,-6 z"
       stroke="#333333"
       stroke-width="3"
       fill="#ffffff"
       id="path2506" />
    <use
       xlink:href="#j"
       transform="translate(839.964,444.65278)"
       id="use2508"
       x="0"
       y="0"
       width="100%"
       height="100%" />
    <path
       d="m 828.48,466 c 0,-3.3 2.7,-6 6,-6 h 48 c 3.32,0 6,2.7 6,6 v 28 c 0,3.3 -2.68,6 -6,6 h -48 c -3.3,0 -6,-2.7 -6,-6 z"
       stroke="#333333"
       stroke-width="3"
       fill="#ffffff"
       id="path2510" />
    <use
       xlink:href="#k"
       transform="translate(839.964,484.65278)"
       id="use2512"
       x="0"
       y="0"
       width="100%"
       height="100%" />
    <path
       d="M 762.36,199.5 814,169.33"
       stroke="#333333"
       stroke-width="2"
       fill="none"
       id="path2514" />
    <path
       d="m 762.9,200.35 -1.4,0.8 v -2.3 l 0.38,-0.23 z"
       fill="#333333"
       id="path2516" />
    <path
       d="m 827.2,161.63 -10,11.2 -4.67,-8 z"
       stroke="#333333"
       stroke-width="2"
       fill="#333333"
       id="path2518" />
    <path
       d="m 762,290.86 55.52,93.24"
       stroke="#333333"
       stroke-width="2"
       fill="none"
       id="path2520" />
    <path
       d="m 762.88,290.37 -1.38,0.82 v -3.15 z"
       fill="#333333"
       id="path2522" />
    <path
       d="m 825.33,397.22 -11.28,-9.9 7.96,-4.73 z"
       stroke="#333333"
       stroke-width="2"
       fill="#333333"
       id="path2524" />
    <path
       d="M 761.98,379.12 821.22,270.88"
       stroke="#333333"
       stroke-width="2"
       fill="none"
       id="path2526" />
    <path
       d="m 762.87,379.58 -1.37,2.5 v -3.25 z"
       fill="#333333"
       id="path2528" />
    <path
       d="m 828.55,257.5 -2.78,14.73 -8.13,-4.45 z"
       stroke="#333333"
       stroke-width="2"
       fill="#333333"
       id="path2530" />
    <path
       d="m 900,106 c 0,-3.3 2.7,-6 6,-6 h 88 c 3.3,0 6,2.7 6,6 v 28 c 0,3.3 -2.7,6 -6,6 h -88 c -3.3,0 -6,-2.7 -6,-6 z m 0,40 c 0,-3.3 2.7,-6 6,-6 h 88 c 3.3,0 6,2.7 6,6 v 28 c 0,3.3 -2.7,6 -6,6 h -88 c -3.3,0 -6,-2.7 -6,-6 z"
       stroke="#333333"
       stroke-width="3"
       fill="#ffffff"
       id="path2532" />
    <use
       xlink:href="#l"
       transform="translate(909.29012,164.65278)"
       id="use2534"
       x="0"
       y="0"
       width="100%"
       height="100%" />
    <path
       d="m 900,186 c 0,-3.3 2.7,-6 6,-6 h 88 c 3.3,0 6,2.7 6,6 v 28 c 0,3.3 -2.7,6 -6,6 h -88 c -3.3,0 -6,-2.7 -6,-6 z m -3,200 c 0,-3.3 2.7,-6 6,-6 h 88 c 3.3,0 6,2.7 6,6 v 28 c 0,3.3 -2.7,6 -6,6 h -88 c -3.3,0 -6,-2.7 -6,-6 z"
       stroke="#333333"
       stroke-width="3"
       fill="#ffffff"
       id="path2536" />
    <use
       xlink:href="#m"
       transform="translate(906.29012,404.65278)"
       id="use2538"
       x="0"
       y="0"
       width="100%"
       height="100%" />
    <path
       d="m 897,426 c 0,-3.3 2.7,-6 6,-6 h 88 c 3.3,0 6,2.7 6,6 v 28 c 0,3.3 -2.7,6 -6,6 h -88 c -3.3,0 -6,-2.7 -6,-6 z m 0,40 c 0,-3.3 2.7,-6 6,-6 h 88 c 3.3,0 6,2.7 6,6 v 28 c 0,3.3 -2.7,6 -6,6 h -88 c -3.3,0 -6,-2.7 -6,-6 z M 831.48,226 c 0,-3.3 2.7,-6 6,-6 h 48 c 3.32,0 6,2.7 6,6 v 28 c 0,3.3 -2.68,6 -6,6 h -48 c -3.3,0 -6,-2.7 -6,-6 z"
       stroke="#333333"
       stroke-width="3"
       fill="#ffffff"
       id="path2540" />
    <use
       xlink:href="#n"
       transform="translate(842.964,244.65278)"
       id="use2542"
       x="0"
       y="0"
       width="100%"
       height="100%" />
    <path
       d="m 900,226 c 0,-3.3 2.7,-6 6,-6 h 88 c 3.3,0 6,2.7 6,6 v 28 c 0,3.3 -2.7,6 -6,6 h -88 c -3.3,0 -6,-2.7 -6,-6 z"
       stroke="#333333"
       stroke-width="3"
       fill="#ffffff"
       id="path2544" />
    <use
       xlink:href="#o"
       transform="translate(909.29012,244.65278)"
       id="use2546"
       x="0"
       y="0"
       width="100%"
       height="100%" />
    <path
       d="m 828.48,346 c 0,-3.3 2.7,-6 6,-6 h 48 c 3.32,0 6,2.7 6,6 v 28 c 0,3.3 -2.68,6 -6,6 h -48 c -3.3,0 -6,-2.7 -6,-6 z"
       stroke="#333333"
       stroke-width="3"
       fill="#ffffff"
       id="path2548" />
    <use
       xlink:href="#p"
       transform="translate(839.964,364.65278)"
       id="use2550"
       x="0"
       y="0"
       width="100%"
       height="100%" />
    <path
       d="m 897,346 c 0,-3.3 2.7,-6 6,-6 h 88 c 3.3,0 6,2.7 6,6 v 28 c 0,3.3 -2.7,6 -6,6 h -88 c -3.3,0 -6,-2.7 -6,-6 z"
       stroke="#333333"
       stroke-width="3"
       fill="#ffffff"
       id="path2552" />
    <path
       d="m 864.82,281.9 c 0,1.07 -1.08,1.92 -2.4,1.92 -1.34,0 -2.42,-0.85 -2.42,-1.9 0,-1.06 1.08,-1.92 2.4,-1.92 1.34,0 2.42,0.86 2.42,1.9 z m 15.18,0 c 0,1.07 -1.08,1.92 -2.4,1.92 -1.34,0 -2.42,-0.85 -2.42,-1.9 0,-1.06 1.08,-1.92 2.4,-1.92 1.34,0 2.42,0.86 2.42,1.9 z m -15.18,30 c 0,1.07 -1.08,1.92 -2.4,1.92 -1.34,0 -2.42,-0.85 -2.42,-1.9 0,-1.06 1.08,-1.92 2.4,-1.92 1.34,0 2.42,0.86 2.42,1.9 z m 15.18,0 c 0,1.07 -1.08,1.92 -2.4,1.92 -1.34,0 -2.42,-0.85 -2.42,-1.9 0,-1.06 1.08,-1.92 2.4,-1.92 1.34,0 2.42,0.86 2.42,1.9 z"
       stroke="#333333"
       stroke-width="3"
       fill="#5e5e5e"
       id="path2554" />
    <defs
       id="defs2724">
      <path
         fill="#333333"
         d="M 153,-248 C 145,-148 188,4 80,4 36,3 13,-21 6,-62 l 32,-5 c 4,25 16,42 43,43 27,0 39,-20 39,-49 V -220 H 72 v -28 h 81"
         id="q" />
      <path
         fill="#333333"
         d="M 106,-169 C 34,-169 62,-67 57,0 H 25 v -261 h 32 l -1,103 c 12,-21 28,-36 61,-36 89,0 53,116 60,194 h -32 v -121 c 2,-32 -8,-49 -39,-48"
         id="r" />
      <path
         fill="#333333"
         d="m 100,-194 c 62,-1 85,37 85,99 1,63 -27,99 -86,99 -59,0 -83,-39 -84,-99 0,-66 28,-99 85,-99 z m -1,174 c 44,1 53,-31 53,-75 0,-43 -8,-75 -51,-75 -43,0 -53,32 -53,75 0,43 10,74 51,75"
         id="s" />
      <path
         fill="#333333"
         d="m 117,-194 c 89,-4 53,116 60,194 h -32 v -121 c 0,-31 -8,-49 -39,-48 C 34,-167 62,-67 57,0 H 25 l -1,-190 h 30 c 1,10 -1,24 2,32 11,-22 29,-35 61,-36"
         id="t" />
      <g
         id="a">
        <use
           transform="scale(0.0617284)"
           xlink:href="#q"
           id="use2560"
           x="0"
           y="0"
           width="100%"
           height="100%" />
        <use
           transform="matrix(0.0617284,0,0,0.0617284,11.111111,0)"
           xlink:href="#r"
           id="use2562"
           x="0"
           y="0"
           width="100%"
           height="100%" />
        <use
           transform="matrix(0.0617284,0,0,0.0617284,23.45679,0)"
           xlink:href="#s"
           id="use2564"
           x="0"
           y="0"
           width="100%"
           height="100%" />
        <use
           transform="matrix(0.0617284,0,0,0.0617284,35.802469,0)"
           xlink:href="#t"
           id="use2566"
           x="0"
           y="0"
           width="100%"
           height="100%" />
      </g>
      <path
         fill="#333333"
         d="m 185,-189 c -5,-48 -123,-54 -124,2 14,75 158,14 163,119 C 227,10 103,19 49,-13 32,-23 21,-39 16,-59 l 33,-7 c 5,56 141,63 141,-1 0,-78 -155,-14 -162,-118 -5,-82 145,-84 179,-34 5,7 8,16 11,25"
         id="u" />
      <path
         fill="#333333"
         d="m 210,-169 c -67,3 -38,105 -44,169 h -31 v -121 c 0,-29 -5,-50 -35,-48 C 34,-165 62,-65 56,0 H 25 l -1,-190 h 30 c 1,10 -1,24 2,32 10,-44 99,-50 107,0 11,-21 27,-35 58,-36 85,-2 47,119 55,194 h -31 v -121 c 0,-29 -5,-49 -35,-48"
         id="v" />
      <path
         fill="#333333"
         d="m 24,-231 v -30 h 32 v 30 z M 24,0 V -190 H 56 V 0 H 24"
         id="w" />
      <path
         fill="#333333"
         d="m 59,-47 c -2,24 18,29 38,22 V -1 C 64,9 27,4 27,-40 V -167 H 5 v -23 h 24 l 9,-43 h 21 v 43 h 35 v 23 H 59 v 120"
         id="x" />
      <g
         id="b">
        <use
           transform="scale(0.0617284)"
           xlink:href="#u"
           id="use2573"
           x="0"
           y="0"
           width="100%"
           height="100%" />
        <use
           transform="matrix(0.0617284,0,0,0.0617284,14.814815,0)"
           xlink:href="#v"
           id="use2575"
           x="0"
           y="0"
           width="100%"
           height="100%" />
        <use
           transform="matrix(0.0617284,0,0,0.0617284,33.271605,0)"
           xlink:href="#w"
           id="use2577"
           x="0"
           y="0"
           width="100%"
           height="100%" />
        <use
           transform="matrix(0.0617284,0,0,0.0617284,38.148148,0)"
           xlink:href="#x"
           id="use2579"
           x="0"
           y="0"
           width="100%"
           height="100%" />
        <use
           transform="matrix(0.0617284,0,0,0.0617284,44.320988,0)"
           xlink:href="#r"
           id="use2581"
           x="0"
           y="0"
           width="100%"
           height="100%" />
      </g>
      <path
         fill="#333333"
         d="M 30,0 V -248 H 63 V -27 H 188 V 0 H 30"
         id="y" />
      <path
         fill="#333333"
         d="m 135,-143 c -3,-34 -86,-38 -87,0 15,53 115,12 119,90 4,78 -150,74 -157,8 l 28,-5 c 4,36 97,45 98,0 -10,-56 -113,-15 -118,-90 -4,-57 82,-63 122,-42 12,7 21,19 24,35"
         id="z" />
      <path
         fill="#333333"
         d="M 141,-36 C 126,-15 110,5 73,4 37,3 15,-17 15,-53 c -1,-64 63,-63 125,-63 3,-35 -9,-54 -41,-54 -24,1 -41,7 -42,31 l -33,-3 c 5,-37 33,-52 76,-52 45,0 72,20 72,64 v 82 c -1,20 7,32 28,27 V -1 C 169,8 139,-3 141,-36 Z M 48,-53 c 0,20 12,33 32,33 41,-3 63,-29 60,-74 -43,2 -92,-5 -92,41"
         id="A" />
      <g
         id="c">
        <use
           transform="scale(0.0617284)"
           xlink:href="#y"
           id="use2587"
           x="0"
           y="0"
           width="100%"
           height="100%" />
        <use
           transform="matrix(0.0617284,0,0,0.0617284,12.345679,0)"
           xlink:href="#w"
           id="use2589"
           x="0"
           y="0"
           width="100%"
           height="100%" />
        <use
           transform="matrix(0.0617284,0,0,0.0617284,17.222222,0)"
           xlink:href="#z"
           id="use2591"
           x="0"
           y="0"
           width="100%"
           height="100%" />
        <use
           transform="matrix(0.0617284,0,0,0.0617284,28.333333,0)"
           xlink:href="#A"
           id="use2593"
           x="0"
           y="0"
           width="100%"
           height="100%" />
      </g>
      <g
         id="d">
        <use
           transform="scale(0.0617284)"
           xlink:href="#u"
           id="use2596"
           x="0"
           y="0"
           width="100%"
           height="100%" />
        <use
           transform="matrix(0.0617284,0,0,0.0617284,14.814815,0)"
           xlink:href="#A"
           id="use2598"
           x="0"
           y="0"
           width="100%"
           height="100%" />
        <use
           transform="matrix(0.0617284,0,0,0.0617284,27.160494,0)"
           xlink:href="#v"
           id="use2600"
           x="0"
           y="0"
           width="100%"
           height="100%" />
      </g>
      <path
         fill="#333333"
         d="m 30,-248 c 118,-7 216,8 213,122 C 240,-48 200,0 122,0 H 30 Z m 33,221 c 89,8 146,-16 146,-99 0,-83 -60,-101 -146,-95 v 194"
         id="B" />
      <path
         fill="#333333"
         d="m 100,-194 c 63,0 86,42 84,106 H 49 c 0,40 14,67 53,68 26,1 43,-12 49,-29 l 28,8 C 168,-13 142,4 102,4 44,4 14,-33 15,-96 c 1,-61 26,-98 85,-98 z m 52,81 c 6,-60 -76,-77 -97,-28 -3,7 -6,17 -6,28 h 103"
         id="C" />
      <g
         id="e">
        <use
           transform="scale(0.0617284)"
           xlink:href="#B"
           id="use2605"
           x="0"
           y="0"
           width="100%"
           height="100%" />
        <use
           transform="matrix(0.0617284,0,0,0.0617284,15.987654,0)"
           xlink:href="#s"
           id="use2607"
           x="0"
           y="0"
           width="100%"
           height="100%" />
        <use
           transform="matrix(0.0617284,0,0,0.0617284,28.333333,0)"
           xlink:href="#C"
           id="use2609"
           x="0"
           y="0"
           width="100%"
           height="100%" />
      </g>
      <path
         fill="#333333"
         d="m 101,-251 c 68,0 85,55 85,127 0,72 -20,128 -86,128 -67,0 -86,-56 -86,-128 0,-73 17,-127 87,-127 z m -1,229 c 47,0 54,-49 54,-102 0,-53 -4,-102 -53,-102 -51,0 -55,48 -55,102 0,53 5,102 54,102"
         id="D" />
      <path
         fill="#333333"
         d="m 27,0 v -27 h 64 v -190 l -56,39 v -29 l 58,-41 h 29 v 221 h 61 V 0 H 27"
         id="E" />
      <g
         id="f">
        <use
           transform="scale(0.0617284)"
           xlink:href="#D"
           id="use2614"
           x="0"
           y="0"
           width="100%"
           height="100%" />
        <use
           transform="matrix(0.0617284,0,0,0.0617284,12.345679,0)"
           xlink:href="#D"
           id="use2616"
           x="0"
           y="0"
           width="100%"
           height="100%" />
        <use
           transform="matrix(0.0617284,0,0,0.0617284,24.691358,0)"
           xlink:href="#E"
           id="use2618"
           x="0"
           y="0"
           width="100%"
           height="100%" />
      </g>
      <path
         fill="#333333"
         d="m 101,-251 c 82,-7 93,87 43,132 L 82,-64 C 71,-53 59,-42 53,-27 H 182 V 0 H 18 c 2,-99 128,-94 128,-182 0,-28 -16,-43 -45,-43 -29,0 -46,15 -49,41 l -32,-3 c 6,-41 34,-60 81,-64"
         id="F" />
      <g
         id="g">
        <use
           transform="scale(0.0617284)"
           xlink:href="#D"
           id="use2622"
           x="0"
           y="0"
           width="100%"
           height="100%" />
        <use
           transform="matrix(0.0617284,0,0,0.0617284,12.345679,0)"
           xlink:href="#D"
           id="use2624"
           x="0"
           y="0"
           width="100%"
           height="100%" />
        <use
           transform="matrix(0.0617284,0,0,0.0617284,24.691358,0)"
           xlink:href="#F"
           id="use2626"
           x="0"
           y="0"
           width="100%"
           height="100%" />
      </g>
      <path
         fill="#333333"
         d="m 126,-127 c 33,6 58,20 58,59 0,88 -139,92 -164,29 -3,-8 -5,-16 -6,-25 l 32,-3 c 6,27 21,44 54,44 32,0 52,-15 52,-46 0,-38 -36,-46 -79,-43 v -28 c 39,1 72,-4 72,-42 0,-27 -17,-43 -46,-43 -28,0 -47,15 -49,41 l -32,-3 c 6,-42 35,-63 81,-64 48,-1 79,21 79,65 0,36 -21,52 -52,59"
         id="G" />
      <g
         id="h">
        <use
           transform="scale(0.0617284)"
           xlink:href="#D"
           id="use2630"
           x="0"
           y="0"
           width="100%"
           height="100%" />
        <use
           transform="matrix(0.0617284,0,0,0.0617284,12.345679,0)"
           xlink:href="#D"
           id="use2632"
           x="0"
           y="0"
           width="100%"
           height="100%" />
        <use
           transform="matrix(0.0617284,0,0,0.0617284,24.691358,0)"
           xlink:href="#G"
           id="use2634"
           x="0"
           y="0"
           width="100%"
           height="100%" />
      </g>
      <path
         fill="#333333"
         d="M 155,-56 V 0 H 125 V -56 H 8 v -25 l 114,-167 h 33 v 167 h 35 v 25 z m -30,-156 c -27,46 -58,90 -88,131 h 88 v -131"
         id="H" />
      <path
         fill="#333333"
         d="m 54,-142 c 48,-35 137,-8 131,61 C 196,18 31,33 14,-55 l 32,-4 c 7,23 22,37 52,37 35,-1 51,-22 54,-58 4,-55 -73,-65 -99,-34 H 22 l 8,-134 h 141 v 27 H 59"
         id="I" />
      <g
         id="i">
        <use
           transform="scale(0.0617284)"
           xlink:href="#H"
           id="use2639"
           x="0"
           y="0"
           width="100%"
           height="100%" />
        <use
           transform="matrix(0.0617284,0,0,0.0617284,12.345679,0)"
           xlink:href="#I"
           id="use2641"
           x="0"
           y="0"
           width="100%"
           height="100%" />
        <use
           transform="matrix(0.0617284,0,0,0.0617284,24.691358,0)"
           xlink:href="#D"
           id="use2643"
           x="0"
           y="0"
           width="100%"
           height="100%" />
      </g>
      <g
         id="j">
        <use
           transform="scale(0.0617284)"
           xlink:href="#H"
           id="use2646"
           x="0"
           y="0"
           width="100%"
           height="100%" />
        <use
           transform="matrix(0.0617284,0,0,0.0617284,12.345679,0)"
           xlink:href="#I"
           id="use2648"
           x="0"
           y="0"
           width="100%"
           height="100%" />
        <use
           transform="matrix(0.0617284,0,0,0.0617284,24.691358,0)"
           xlink:href="#E"
           id="use2650"
           x="0"
           y="0"
           width="100%"
           height="100%" />
      </g>
      <g
         id="k">
        <use
           transform="scale(0.0617284)"
           xlink:href="#H"
           id="use2653"
           x="0"
           y="0"
           width="100%"
           height="100%" />
        <use
           transform="matrix(0.0617284,0,0,0.0617284,12.345679,0)"
           xlink:href="#I"
           id="use2655"
           x="0"
           y="0"
           width="100%"
           height="100%" />
        <use
           transform="matrix(0.0617284,0,0,0.0617284,24.691358,0)"
           xlink:href="#F"
           id="use2657"
           x="0"
           y="0"
           width="100%"
           height="100%" />
      </g>
      <path
         fill="#333333"
         d="m 64,0 c 3,-98 48,-159 88,-221 H 18 v -27 h 164 v 26 C 143,-157 98,-101 97,0 H 64"
         id="J" />
      <path
         fill="#333333"
         d="m 16,-82 v -28 h 88 v 28 H 16"
         id="K" />
      <g
         id="l">
        <use
           transform="scale(0.0617284)"
           xlink:href="#I"
           id="use2662"
           x="0"
           y="0"
           width="100%"
           height="100%" />
        <use
           transform="matrix(0.0617284,0,0,0.0617284,12.345679,0)"
           xlink:href="#J"
           id="use2664"
           x="0"
           y="0"
           width="100%"
           height="100%" />
        <use
           transform="matrix(0.0617284,0,0,0.0617284,24.691358,0)"
           xlink:href="#G"
           id="use2666"
           x="0"
           y="0"
           width="100%"
           height="100%" />
        <use
           transform="matrix(0.0617284,0,0,0.0617284,37.037037,0)"
           xlink:href="#K"
           id="use2668"
           x="0"
           y="0"
           width="100%"
           height="100%" />
        <use
           transform="matrix(0.0617284,0,0,0.0617284,44.382716,0)"
           xlink:href="#I"
           id="use2670"
           x="0"
           y="0"
           width="100%"
           height="100%" />
        <use
           transform="matrix(0.0617284,0,0,0.0617284,56.728395,0)"
           xlink:href="#D"
           id="use2672"
           x="0"
           y="0"
           width="100%"
           height="100%" />
        <use
           transform="matrix(0.0617284,0,0,0.0617284,69.074074,0)"
           xlink:href="#F"
           id="use2674"
           x="0"
           y="0"
           width="100%"
           height="100%" />
      </g>
      <path
         fill="#333333"
         d="m 134,-131 c 28,9 52,24 51,62 -1,50 -34,73 -85,73 -51,0 -83,-23 -84,-73 0,-36 21,-54 49,-61 -75,-25 -45,-126 34,-121 46,3 78,18 79,63 0,33 -17,51 -44,57 z m -34,-11 c 31,1 46,-15 46,-44 0,-28 -17,-43 -47,-42 -29,0 -46,13 -45,42 1,28 16,44 46,44 z m 1,122 c 35,0 51,-18 51,-52 0,-30 -18,-46 -53,-46 -33,0 -51,17 -51,47 0,34 19,51 53,51"
         id="L" />
      <g
         id="m">
        <use
           transform="scale(0.0617284)"
           xlink:href="#H"
           id="use2678"
           x="0"
           y="0"
           width="100%"
           height="100%" />
        <use
           transform="matrix(0.0617284,0,0,0.0617284,12.345679,0)"
           xlink:href="#L"
           id="use2680"
           x="0"
           y="0"
           width="100%"
           height="100%" />
        <use
           transform="matrix(0.0617284,0,0,0.0617284,24.691358,0)"
           xlink:href="#J"
           id="use2682"
           x="0"
           y="0"
           width="100%"
           height="100%" />
        <use
           transform="matrix(0.0617284,0,0,0.0617284,37.037037,0)"
           xlink:href="#K"
           id="use2684"
           x="0"
           y="0"
           width="100%"
           height="100%" />
        <use
           transform="matrix(0.0617284,0,0,0.0617284,44.382716,0)"
           xlink:href="#L"
           id="use2686"
           x="0"
           y="0"
           width="100%"
           height="100%" />
        <use
           transform="matrix(0.0617284,0,0,0.0617284,56.728395,0)"
           xlink:href="#I"
           id="use2688"
           x="0"
           y="0"
           width="100%"
           height="100%" />
        <use
           transform="matrix(0.0617284,0,0,0.0617284,69.074074,0)"
           xlink:href="#I"
           id="use2690"
           x="0"
           y="0"
           width="100%"
           height="100%" />
      </g>
      <g
         id="n">
        <use
           transform="scale(0.0617284)"
           xlink:href="#D"
           id="use2693"
           x="0"
           y="0"
           width="100%"
           height="100%" />
        <use
           transform="matrix(0.0617284,0,0,0.0617284,12.345679,0)"
           xlink:href="#D"
           id="use2695"
           x="0"
           y="0"
           width="100%"
           height="100%" />
        <use
           transform="matrix(0.0617284,0,0,0.0617284,24.691358,0)"
           xlink:href="#H"
           id="use2697"
           x="0"
           y="0"
           width="100%"
           height="100%" />
      </g>
      <path
         fill="#333333"
         d="m 110,-160 c 48,1 74,30 74,79 0,53 -28,85 -80,85 -65,0 -83,-55 -86,-122 -5,-90 50,-162 133,-122 14,7 22,21 27,39 l -31,6 c -5,-40 -67,-38 -82,-6 -9,19 -15,44 -15,74 11,-20 30,-34 60,-33 z m -7,138 c 34,0 49,-23 49,-58 0,-35 -16,-56 -50,-56 -29,0 -50,16 -49,49 1,36 15,65 50,65"
         id="M" />
      <g
         id="o">
        <use
           transform="scale(0.0617284)"
           xlink:href="#L"
           id="use2701"
           x="0"
           y="0"
           width="100%"
           height="100%" />
        <use
           transform="matrix(0.0617284,0,0,0.0617284,12.345679,0)"
           xlink:href="#I"
           id="use2703"
           x="0"
           y="0"
           width="100%"
           height="100%" />
        <use
           transform="matrix(0.0617284,0,0,0.0617284,24.691358,0)"
           xlink:href="#M"
           id="use2705"
           x="0"
           y="0"
           width="100%"
           height="100%" />
        <use
           transform="matrix(0.0617284,0,0,0.0617284,37.037037,0)"
           xlink:href="#K"
           id="use2707"
           x="0"
           y="0"
           width="100%"
           height="100%" />
        <use
           transform="matrix(0.0617284,0,0,0.0617284,44.382716,0)"
           xlink:href="#H"
           id="use2709"
           x="0"
           y="0"
           width="100%"
           height="100%" />
        <use
           transform="matrix(0.0617284,0,0,0.0617284,56.728395,0)"
           xlink:href="#I"
           id="use2711"
           x="0"
           y="0"
           width="100%"
           height="100%" />
        <use
           transform="matrix(0.0617284,0,0,0.0617284,69.074074,0)"
           xlink:href="#F"
           id="use2713"
           x="0"
           y="0"
           width="100%"
           height="100%" />
      </g>
      <path
         fill="#333333"
         d="m 99,-251 c 64,0 84,50 84,122 C 183,-37 130,33 47,-8 33,-15 27,-31 22,-48 l 30,-5 c 6,39 69,39 84,7 9,-19 16,-44 16,-74 -10,22 -31,35 -62,35 -49,0 -73,-33 -73,-83 0,-54 28,-83 82,-83 z m -1,141 c 31,-1 51,-18 51,-49 0,-36 -14,-67 -51,-67 -34,0 -49,23 -49,58 0,34 15,58 49,58"
         id="N" />
      <g
         id="p">
        <use
           transform="scale(0.0617284)"
           xlink:href="#G"
           id="use2717"
           x="0"
           y="0"
           width="100%"
           height="100%" />
        <use
           transform="matrix(0.0617284,0,0,0.0617284,12.345679,0)"
           xlink:href="#N"
           id="use2719"
           x="0"
           y="0"
           width="100%"
           height="100%" />
        <use
           transform="matrix(0.0617284,0,0,0.0617284,24.691358,0)"
           xlink:href="#N"
           id="use2721"
           x="0"
           y="0"
           width="100%"
           height="100%" />
      </g>
    </defs>
  </g>
</svg>
