<?xml version="1.0" encoding="UTF-8" standalone="no"?>
<svg
   xmlns:lucid="lucid"
   xmlns:dc="http://purl.org/dc/elements/1.1/"
   xmlns:cc="http://creativecommons.org/ns#"
   xmlns:rdf="http://www.w3.org/1999/02/22-rdf-syntax-ns#"
   xmlns:svg="http://www.w3.org/2000/svg"
   xmlns="http://www.w3.org/2000/svg"
   xmlns:sodipodi="http://sodipodi.sourceforge.net/DTD/sodipodi-0.dtd"
   xmlns:inkscape="http://www.inkscape.org/namespaces/inkscape"
   width="203"
   height="203"
   version="1.1"
   id="svg3961"
   sodipodi:docname="linkedListIcon.svg"
   inkscape:version="1.0.2 (e86c870879, 2021-01-15)">
  <metadata
     id="metadata3967">
    <rdf:RDF>
      <cc:Work
         rdf:about="">
        <dc:format>image/svg+xml</dc:format>
        <dc:type
           rdf:resource="http://purl.org/dc/dcmitype/StillImage" />
        <dc:title></dc:title>
      </cc:Work>
    </rdf:RDF>
  </metadata>
  <defs
     id="defs3965" />
  <sodipodi:namedview
     pagecolor="#ffffff"
     bordercolor="#666666"
     borderopacity="1"
     objecttolerance="10"
     gridtolerance="10"
     guidetolerance="10"
     inkscape:pageopacity="0"
     inkscape:pageshadow="2"
     inkscape:window-width="1366"
     inkscape:window-height="768"
     id="namedview3963"
     showgrid="false"
     inkscape:zoom="2.35"
     inkscape:cx="101.5"
     inkscape:cy="101.5"
     inkscape:window-x="0"
     inkscape:window-y="0"
     inkscape:window-maximized="1"
     inkscape:current-layer="svg3961" />
  <g
     lucid:page-tab-id="hj4pdjpy_zNu"
     id="g3959"
     transform="translate(-18.5,-18.5)">
    <path
       d="m 20,26 c 0,-3.3 2.7,-6 6,-6 h 48 c 3.3,0 6,2.7 6,6 v 48 c 0,3.3 -2.7,6 -6,6 H 26 c -3.3,0 -6,-2.7 -6,-6 z m 140,0 c 0,-3.3 2.7,-6 6,-6 h 48 c 3.3,0 6,2.7 6,6 v 48 c 0,3.3 -2.7,6 -6,6 h -48 c -3.3,0 -6,-2.7 -6,-6 z m 0,140 c 0,-3.3 2.7,-6 6,-6 h 48 c 3.3,0 6,2.7 6,6 v 48 c 0,3.3 -2.7,6 -6,6 h -48 c -3.3,0 -6,-2.7 -6,-6 z m -140,0 c 0,-3.3 2.7,-6 6,-6 h 48 c 3.3,0 6,2.7 6,6 v 48 c 0,3.3 -2.7,6 -6,6 H 26 c -3.3,0 -6,-2.7 -6,-6 z"
       stroke="#333333"
       stroke-width="3"
       fill="#ffffff"
       id="path3939" />
    <path
       d="M 82.5,50 H 140"
       stroke="#333333"
       stroke-width="2"
       fill="none"
       id="path3941" />
    <path
       d="M 82.53,51 H 81.5 v -2 h 1.03 z"
       fill="#333333"
       id="path3943" />
    <path
       d="M 155.26,50 141,54.64 v -9.28 z"
       stroke="#333333"
       stroke-width="2"
       fill="#333333"
       id="path3945" />
    <path
       d="M 157.5,190 H 100"
       stroke="#333333"
       stroke-width="2"
       fill="none"
       id="path3947" />
    <path
       d="m 158.5,191 h -1.03 v -2 h 1.03 z"
       fill="#333333"
       id="path3949" />
    <path
       d="M 84.74,190 99,185.36 v 9.28 z"
       stroke="#333333"
       stroke-width="2"
       fill="#333333"
       id="path3951" />
    <path
       d="M 190,82.5 V 140"
       stroke="#333333"
       stroke-width="2"
       fill="none"
       id="path3953" />
    <path
       d="m 191,82.53 h -2 V 81.5 h 2 z"
       fill="#333333"
       id="path3955" />
    <path
       d="M 190,155.26 185.36,141 h 9.28 z"
       stroke="#333333"
       stroke-width="2"
       fill="#333333"
       id="path3957" />
  </g>
</svg>
