<?xml version="1.0" encoding="UTF-8" standalone="no"?>
<svg
   xmlns:lucid="lucid"
   xmlns:dc="http://purl.org/dc/elements/1.1/"
   xmlns:cc="http://creativecommons.org/ns#"
   xmlns:rdf="http://www.w3.org/1999/02/22-rdf-syntax-ns#"
   xmlns:svg="http://www.w3.org/2000/svg"
   xmlns="http://www.w3.org/2000/svg"
   xmlns:xlink="http://www.w3.org/1999/xlink"
   xmlns:sodipodi="http://sodipodi.sourceforge.net/DTD/sodipodi-0.dtd"
   xmlns:inkscape="http://www.inkscape.org/namespaces/inkscape"
   width="143"
   height="143"
   version="1.1"
   id="svg3811"
   sodipodi:docname="sortIcon.svg"
   inkscape:version="1.0.2 (e86c870879, 2021-01-15)">
  <metadata
     id="metadata3817">
    <rdf:RDF>
      <cc:Work
         rdf:about="">
        <dc:format>image/svg+xml</dc:format>
        <dc:type
           rdf:resource="http://purl.org/dc/dcmitype/StillImage" />
        <dc:title></dc:title>
      </cc:Work>
    </rdf:RDF>
  </metadata>
  <defs
     id="defs3815" />
  <sodipodi:namedview
     pagecolor="#ffffff"
     bordercolor="#666666"
     borderopacity="1"
     objecttolerance="10"
     gridtolerance="10"
     guidetolerance="10"
     inkscape:pageopacity="0"
     inkscape:pageshadow="2"
     inkscape:window-width="1366"
     inkscape:window-height="768"
     id="namedview3813"
     showgrid="false"
     inkscape:zoom="3.1333333"
     inkscape:cx="71.5"
     inkscape:cy="71.5"
     inkscape:window-x="0"
     inkscape:window-y="0"
     inkscape:window-maximized="1"
     inkscape:current-layer="svg3811" />
  <g
     transform="translate(-398.5,-98.5)"
     lucid:page-tab-id="rQ4phKq-Mj5q"
     id="g3809">
    <path
       d="m 400,106 c 0,-3.3 2.7,-6 6,-6 h 34.67 c 3.3,0 6,2.7 6,6 v 28 c 0,3.3 -2.7,6 -6,6 H 406 c -3.3,0 -6,-2.7 -6,-6 z"
       stroke="#333333"
       stroke-width="3"
       fill="#ffffff"
       id="path3771" />
    <use
       xlink:href="#a"
       transform="translate(417.32716,124.65278)"
       id="use3773"
       x="0"
       y="0"
       width="100%"
       height="100%" />
    <path
       d="m 446.67,106 c 0,-3.3 2.68,-6 6,-6 h 34.66 c 3.32,0 6,2.7 6,6 v 28 c 0,3.3 -2.68,6 -6,6 h -34.66 c -3.32,0 -6,-2.7 -6,-6 z"
       stroke="#333333"
       stroke-width="3"
       fill="#ffffff"
       id="path3775" />
    <use
       xlink:href="#b"
       transform="translate(463.99383,124.65278)"
       id="use3777"
       x="0"
       y="0"
       width="100%"
       height="100%" />
    <path
       d="m 493.33,106 c 0,-3.3 2.7,-6 6,-6 H 534 c 3.3,0 6,2.7 6,6 v 28 c 0,3.3 -2.7,6 -6,6 h -34.67 c -3.3,0 -6,-2.7 -6,-6 z"
       stroke="#333333"
       stroke-width="3"
       fill="#ffffff"
       id="path3779" />
    <use
       xlink:href="#c"
       transform="translate(510.66049,124.65278)"
       id="use3781"
       x="0"
       y="0"
       width="100%"
       height="100%" />
    <path
       d="m 400,206 c 0,-3.3 2.7,-6 6,-6 h 34.67 c 3.3,0 6,2.7 6,6 v 28 c 0,3.3 -2.7,6 -6,6 H 406 c -3.3,0 -6,-2.7 -6,-6 z"
       stroke="#333333"
       stroke-width="3"
       fill="#ffffff"
       id="path3783" />
    <use
       xlink:href="#c"
       transform="translate(417.32716,224.65278)"
       id="use3785"
       x="0"
       y="0"
       width="100%"
       height="100%" />
    <path
       d="m 446.67,206 c 0,-3.3 2.68,-6 6,-6 h 34.66 c 3.32,0 6,2.7 6,6 v 28 c 0,3.3 -2.68,6 -6,6 h -34.66 c -3.32,0 -6,-2.7 -6,-6 z"
       stroke="#333333"
       stroke-width="3"
       fill="#ffffff"
       id="path3787" />
    <use
       xlink:href="#d"
       transform="translate(463.99383,224.65278)"
       id="use3789"
       x="0"
       y="0"
       width="100%"
       height="100%" />
    <path
       d="m 493.33,206 c 0,-3.3 2.7,-6 6,-6 H 534 c 3.3,0 6,2.7 6,6 v 28 c 0,3.3 -2.7,6 -6,6 h -34.67 c -3.3,0 -6,-2.7 -6,-6 z"
       stroke="#333333"
       stroke-width="3"
       fill="#ffffff"
       id="path3791" />
    <use
       xlink:href="#b"
       transform="translate(510.66049,224.65278)"
       id="use3793"
       x="0"
       y="0"
       width="100%"
       height="100%" />
    <path
       d="m 466.67,141 v 39 m 0,-38.97 V 140"
       stroke="#333333"
       stroke-width="2"
       fill="none"
       id="path3795" />
    <path
       d="M 466.67,195.26 462.03,181 h 9.27 z"
       stroke="#333333"
       stroke-width="2"
       fill="#333333"
       id="path3797" />
    <defs
       id="defs3807">
      <path
         fill="#333333"
         d="m 54,-142 c 48,-35 137,-8 131,61 C 196,18 31,33 14,-55 l 32,-4 c 7,23 22,37 52,37 35,-1 51,-22 54,-58 4,-55 -73,-65 -99,-34 H 22 l 8,-134 h 141 v 27 H 59"
         id="e" />
      <use
         transform="scale(0.0617284)"
         xlink:href="#e"
         id="a"
         x="0"
         y="0"
         width="100%"
         height="100%" />
      <path
         fill="#333333"
         d="m 126,-127 c 33,6 58,20 58,59 0,88 -139,92 -164,29 -3,-8 -5,-16 -6,-25 l 32,-3 c 6,27 21,44 54,44 32,0 52,-15 52,-46 0,-38 -36,-46 -79,-43 v -28 c 39,1 72,-4 72,-42 0,-27 -17,-43 -46,-43 -28,0 -47,15 -49,41 l -32,-3 c 6,-42 35,-63 81,-64 48,-1 79,21 79,65 0,36 -21,52 -52,59"
         id="f" />
      <use
         transform="scale(0.0617284)"
         xlink:href="#f"
         id="b"
         x="0"
         y="0"
         width="100%"
         height="100%" />
      <path
         fill="#333333"
         d="m 27,0 v -27 h 64 v -190 l -56,39 v -29 l 58,-41 h 29 v 221 h 61 V 0 H 27"
         id="g" />
      <use
         transform="scale(0.0617284)"
         xlink:href="#g"
         id="c"
         x="0"
         y="0"
         width="100%"
         height="100%" />
      <path
         fill="#333333"
         d="m 101,-251 c 82,-7 93,87 43,132 L 82,-64 C 71,-53 59,-42 53,-27 H 182 V 0 H 18 c 2,-99 128,-94 128,-182 0,-28 -16,-43 -45,-43 -29,0 -46,15 -49,41 l -32,-3 c 6,-41 34,-60 81,-64"
         id="h" />
      <use
         transform="scale(0.0617284)"
         xlink:href="#h"
         id="d"
         x="0"
         y="0"
         width="100%"
         height="100%" />
    </defs>
  </g>
</svg>
