<?xml version="1.0" encoding="UTF-8" standalone="no"?>
<svg
   xmlns:lucid="lucid"
   xmlns:dc="http://purl.org/dc/elements/1.1/"
   xmlns:cc="http://creativecommons.org/ns#"
   xmlns:rdf="http://www.w3.org/1999/02/22-rdf-syntax-ns#"
   xmlns:svg="http://www.w3.org/2000/svg"
   xmlns="http://www.w3.org/2000/svg"
   xmlns:xlink="http://www.w3.org/1999/xlink"
   xmlns:sodipodi="http://sodipodi.sourceforge.net/DTD/sodipodi-0.dtd"
   xmlns:inkscape="http://www.inkscape.org/namespaces/inkscape"
   width="401.10059"
   height="409"
   version="1.1"
   id="svg2166"
   sodipodi:docname="stackQueueIcon.svg"
   inkscape:version="1.0.2 (e86c870879, 2021-01-15)">
  <metadata
     id="metadata2172">
    <rdf:RDF>
      <cc:Work
         rdf:about="">
        <dc:format>image/svg+xml</dc:format>
        <dc:type
           rdf:resource="http://purl.org/dc/dcmitype/StillImage" />
        <dc:title></dc:title>
      </cc:Work>
    </rdf:RDF>
  </metadata>
  <defs
     id="defs2170" />
  <sodipodi:namedview
     pagecolor="#ffffff"
     bordercolor="#666666"
     borderopacity="1"
     objecttolerance="10"
     gridtolerance="10"
     guidetolerance="10"
     inkscape:pageopacity="0"
     inkscape:pageshadow="2"
     inkscape:window-width="1366"
     inkscape:window-height="768"
     id="namedview2168"
     showgrid="false"
     inkscape:zoom="1.264574"
     inkscape:cx="200.81356"
     inkscape:cy="206"
     inkscape:window-x="0"
     inkscape:window-y="0"
     inkscape:window-maximized="1"
     inkscape:current-layer="svg2166" />
  <g
     transform="translate(-298.43644,-97)"
     lucid:page-tab-id="oU4pfbfIsFTs"
     id="g2164">
    <path
       d="m 400,106 c 0,-3.3 2.7,-6 6,-6 h 88 c 3.3,0 6,2.7 6,6 v 88 c 0,3.3 -2.7,6 -6,6 h -88 c -3.3,0 -6,-2.7 -6,-6 z m 100,0 c 0,-3.3 2.7,-6 6,-6 h 88 c 3.3,0 6,2.7 6,6 v 88 c 0,3.3 -2.7,6 -6,6 h -88 c -3.3,0 -6,-2.7 -6,-6 z"
       stroke="#333333"
       stroke-width="6"
       fill="#ffffff"
       id="path2105" />
    <path
       d="m 605.44,173.8 71.08,50.56"
       stroke="#333333"
       stroke-width="6"
       fill="none"
       id="path2107" />
    <path
       d="m 607.25,171.4 -3.48,4.87 -0.77,-0.54 v -7.37 z"
       fill="#333333"
       id="path2109" />
    <path
       d="m 690.6,234.37 -14.32,-4.5 5.37,-7.55 z"
       stroke="#333333"
       stroke-width="6"
       fill="#333333"
       id="path2111" />
    <path
       d="M 302.56,238.43 374.02,194.5 M 302.62,238.4 300,240"
       stroke="#333333"
       stroke-width="6"
       fill="none"
       id="path2113" />
    <path
       d="m 388.73,185.46 -9.73,11.42 -4.85,-7.9 z"
       stroke="#333333"
       stroke-width="6"
       fill="#333333"
       id="path2115" />
    <path
       d="m 400,346 c 0,-3.3 2.7,-6 6,-6 h 88 c 3.3,0 6,2.7 6,6 v 88 c 0,3.3 -2.7,6 -6,6 h -88 c -3.3,0 -6,-2.7 -6,-6 z m 100,0 c 0,-3.3 2.7,-6 6,-6 h 88 c 3.3,0 6,2.7 6,6 v 88 c 0,3.3 -2.7,6 -6,6 h -88 c -3.3,0 -6,-2.7 -6,-6 z"
       stroke="#333333"
       stroke-width="6"
       fill="#ffffff"
       id="path2117" />
    <path
       d="m 394.1,415.37 -68,17.8"
       stroke="#333333"
       stroke-width="6"
       fill="none"
       id="path2119" />
    <path
       d="m 397,417.7 -2.22,0.6 -1.52,-5.82 3.74,-0.98 z"
       fill="#333333"
       id="path2121" />
    <path
       d="m 309.4,437.54 12.62,-8.1 2.35,8.97 z"
       stroke="#333333"
       stroke-width="6"
       fill="#333333"
       id="path2123" />
    <path
       d="m 302.87,360.9 68.36,21.13 M 302.94,360.9 300,360"
       stroke="#333333"
       stroke-width="6"
       fill="none"
       id="path2125" />
    <path
       d="m 387.73,387.13 -15,0.2 2.74,-8.84 z"
       stroke="#333333"
       stroke-width="6"
       fill="#333333"
       id="path2127" />
    <path
       d="m 320,126 c 0,-3.3 2.7,-6 6,-6 h 28 c 3.3,0 6,2.7 6,6 v 54 c 0,3.3 -2.7,6 -6,6 h -28 c -3.3,0 -6,-2.7 -6,-6 z"
       fill="#ffffff"
       fill-opacity="0"
       id="path2129" />
    <use
       xlink:href="#a"
       transform="translate(319.32407,162.33333)"
       id="use2131"
       x="0"
       y="0"
       width="100%"
       height="100%" />
    <path
       d="m 640,123 c 0,-3.3 2.7,-6 6,-6 h 28 c 3.3,0 6,2.7 6,6 v 54 c 0,3.3 -2.7,6 -6,6 h -28 c -3.3,0 -6,-2.7 -6,-6 z"
       fill="#ffffff"
       fill-opacity="0"
       id="path2133" />
    <use
       xlink:href="#b"
       transform="translate(619.94444,159.33333)"
       id="use2135"
       x="0"
       y="0"
       width="100%"
       height="100%" />
    <path
       d="m 340,306 c 0,-3.3 2.7,-6 6,-6 h 28 c 3.3,0 6,2.7 6,6 v 54 c 0,3.3 -2.7,6 -6,6 h -28 c -3.3,0 -6,-2.7 -6,-6 z"
       fill="#ffffff"
       fill-opacity="0"
       id="path2137" />
    <use
       xlink:href="#a"
       transform="translate(339.32407,342.33333)"
       id="use2139"
       x="0"
       y="0"
       width="100%"
       height="100%" />
    <path
       d="m 320,446 c 0,-3.3 2.7,-6 6,-6 h 28 c 3.3,0 6,2.7 6,6 v 54 c 0,3.3 -2.7,6 -6,6 h -28 c -3.3,0 -6,-2.7 -6,-6 z"
       fill="#ffffff"
       fill-opacity="0"
       id="path2141" />
    <use
       xlink:href="#b"
       transform="translate(299.94444,482.33333)"
       id="use2143"
       x="0"
       y="0"
       width="100%"
       height="100%" />
    <defs
       id="defs2162">
      <path
         fill="#333333"
         d="M 24,0 V -248 H 76 V 0 H 24"
         id="c" />
      <path
         fill="#333333"
         d="m 135,-194 c 87,-1 58,113 63,194 h -50 c -7,-57 23,-157 -34,-157 -59,0 -34,97 -39,157 H 25 l -1,-190 h 47 c 2,12 -1,28 3,38 12,-26 28,-41 61,-42"
         id="d" />
      <g
         id="a">
        <use
           transform="scale(0.12962963)"
           xlink:href="#c"
           id="use2147"
           x="0"
           y="0"
           width="100%"
           height="100%" />
        <use
           transform="matrix(0.12962963,0,0,0.12962963,12.962963,0)"
           xlink:href="#d"
           id="use2149"
           x="0"
           y="0"
           width="100%"
           height="100%" />
      </g>
      <path
         fill="#333333"
         d="m 140,-251 c 80,0 125,45 125,126 C 265,-44 219,4 139,4 58,4 15,-44 15,-125 c 0,-81 44,-126 125,-126 z m -1,214 c 52,0 73,-35 73,-88 0,-50 -21,-86 -72,-86 -52,0 -73,35 -73,86 0,51 22,88 72,88"
         id="e" />
      <path
         fill="#333333"
         d="M 85,4 C -2,5 27,-109 22,-190 h 50 c 7,57 -23,150 33,157 60,-5 35,-97 40,-157 h 50 l 1,190 h -47 c -2,-12 1,-28 -3,-38 -12,25 -28,42 -61,42"
         id="f" />
      <path
         fill="#333333"
         d="M 115,-3 C 79,11 28,4 28,-45 V -157 H 4 v -33 h 27 l 15,-45 h 31 v 45 h 36 v 33 H 77 v 99 c -1,23 16,31 38,25 v 30"
         id="g" />
      <g
         id="b">
        <use
           transform="scale(0.12962963)"
           xlink:href="#e"
           id="use2155"
           x="0"
           y="0"
           width="100%"
           height="100%" />
        <use
           transform="matrix(0.12962963,0,0,0.12962963,36.296296,0)"
           xlink:href="#f"
           id="use2157"
           x="0"
           y="0"
           width="100%"
           height="100%" />
        <use
           transform="matrix(0.12962963,0,0,0.12962963,64.685185,0)"
           xlink:href="#g"
           id="use2159"
           x="0"
           y="0"
           width="100%"
           height="100%" />
      </g>
    </defs>
  </g>
</svg>
