<?xml version="1.0" encoding="UTF-8" standalone="no"?>
<svg
   xmlns:lucid="lucid"
   xmlns:dc="http://purl.org/dc/elements/1.1/"
   xmlns:cc="http://creativecommons.org/ns#"
   xmlns:rdf="http://www.w3.org/1999/02/22-rdf-syntax-ns#"
   xmlns:svg="http://www.w3.org/2000/svg"
   xmlns="http://www.w3.org/2000/svg"
   xmlns:xlink="http://www.w3.org/1999/xlink"
   xmlns:sodipodi="http://sodipodi.sourceforge.net/DTD/sodipodi-0.dtd"
   xmlns:inkscape="http://www.inkscape.org/namespaces/inkscape"
   width="203"
   height="203"
   version="1.1"
   id="svg1495"
   sodipodi:docname="treeIcon.svg"
   inkscape:version="1.0.2 (e86c870879, 2021-01-15)">
  <metadata
     id="metadata1501">
    <rdf:RDF>
      <cc:Work
         rdf:about="">
        <dc:format>image/svg+xml</dc:format>
        <dc:type
           rdf:resource="http://purl.org/dc/dcmitype/StillImage" />
        <dc:title></dc:title>
      </cc:Work>
    </rdf:RDF>
  </metadata>
  <defs
     id="defs1499" />
  <sodipodi:namedview
     pagecolor="#ffffff"
     bordercolor="#666666"
     borderopacity="1"
     objecttolerance="10"
     gridtolerance="10"
     guidetolerance="10"
     inkscape:pageopacity="0"
     inkscape:pageshadow="2"
     inkscape:window-width="1366"
     inkscape:window-height="768"
     id="namedview1497"
     showgrid="false"
     inkscape:zoom="2.4845815"
     inkscape:cx="103.5"
     inkscape:cy="101"
     inkscape:window-x="0"
     inkscape:window-y="0"
     inkscape:window-maximized="1"
     inkscape:current-layer="svg1495" />
  <g
     transform="translate(-198.5,-98.5)"
     lucid:page-tab-id="0_0"
     id="g1493">
    <path
       d="m 345.7,140 c 0,22.1 -19.17,40 -42.84,40 -23.67,0 -42.86,-17.9 -42.86,-40 0,-22.1 19.2,-40 42.86,-40 23.67,0 42.85,17.9 42.85,40 z"
       stroke="#333333"
       stroke-width="3"
       fill="#ffffff"
       id="path1461" />
    <use
       xlink:href="#a"
       transform="translate(296.82716,144.65278)"
       id="use1463"
       x="0"
       y="0"
       width="100%"
       height="100%" />
    <path
       d="m 285.7,260 c 0,22.1 -19.17,40 -42.84,40 -23.67,0 -42.86,-17.9 -42.86,-40 0,-22.1 19.2,-40 42.86,-40 23.67,0 42.85,17.9 42.85,40 z"
       stroke="#333333"
       stroke-width="3"
       fill="#ffffff"
       id="path1465" />
    <use
       xlink:href="#b"
       transform="translate(236.82716,264.65278)"
       id="use1467"
       x="0"
       y="0"
       width="100%"
       height="100%" />
    <path
       d="m 400,260 c 0,22.1 -19.2,40 -42.86,40 -23.67,0 -42.85,-17.9 -42.85,-40 0,-22.1 19.17,-40 42.84,-40 23.67,0 42.87,17.9 42.87,40 z"
       stroke="#333333"
       stroke-width="3"
       fill="#ffffff"
       id="path1469" />
    <use
       xlink:href="#c"
       transform="translate(351.11287,264.65278)"
       id="use1471"
       x="0"
       y="0"
       width="100%"
       height="100%" />
    <path
       d="m 284.03,178.6 -14.62,27.15"
       stroke="#333333"
       stroke-width="2"
       fill="none"
       id="path1473" />
    <path
       d="m 285.43,178.1 -0.53,1 -1.76,-0.96 0.45,-0.83 z"
       fill="#333333"
       id="path1475" />
    <path
       d="m 262.17,219.2 2.7,-14.77 8.15,4.4 z"
       stroke="#333333"
       stroke-width="2"
       fill="#333333"
       id="path1477" />
    <path
       d="m 323.34,177.85 9.8,26.72"
       stroke="#333333"
       stroke-width="2"
       fill="none"
       id="path1479" />
    <path
       d="m 324.28,177.53 -1.87,0.7 -0.3,-0.87 1.8,-0.9 z"
       fill="#333333"
       id="path1481" />
    <path
       d="m 338.42,218.9 -9.27,-11.8 8.7,-3.2 z"
       stroke="#333333"
       stroke-width="2"
       fill="#333333"
       id="path1483" />
    <defs
       id="defs1491">
      <path
         fill="#333333"
         d="m 54,-142 c 48,-35 137,-8 131,61 C 196,18 31,33 14,-55 l 32,-4 c 7,23 22,37 52,37 35,-1 51,-22 54,-58 4,-55 -73,-65 -99,-34 H 22 l 8,-134 h 141 v 27 H 59"
         id="d" />
      <use
         transform="scale(0.0617284)"
         xlink:href="#d"
         id="a"
         x="0"
         y="0"
         width="100%"
         height="100%" />
      <path
         fill="#333333"
         d="m 27,0 v -27 h 64 v -190 l -56,39 v -29 l 58,-41 h 29 v 221 h 61 V 0 H 27"
         id="e" />
      <use
         transform="scale(0.0617284)"
         xlink:href="#e"
         id="b"
         x="0"
         y="0"
         width="100%"
         height="100%" />
      <path
         fill="#333333"
         d="m 99,-251 c 64,0 84,50 84,122 C 183,-37 130,33 47,-8 33,-15 27,-31 22,-48 l 30,-5 c 6,39 69,39 84,7 9,-19 16,-44 16,-74 -10,22 -31,35 -62,35 -49,0 -73,-33 -73,-83 0,-54 28,-83 82,-83 z m -1,141 c 31,-1 51,-18 51,-49 0,-36 -14,-67 -51,-67 -34,0 -49,23 -49,58 0,34 15,58 49,58"
         id="f" />
      <use
         transform="scale(0.0617284)"
         xlink:href="#f"
         id="c"
         x="0"
         y="0"
         width="100%"
         height="100%" />
    </defs>
  </g>
</svg>
